<svg xmlns="http://www.w3.org/2000/svg" width="666.7" height="666.7" viewBox="0 0 666.7 666.7"><title>wordpress-logo</title><path d="M333.3,20A311.8,311.8,0,0,1,508.5,73.5,314.3,314.3,0,0,1,622.1,211.4a312.9,312.9,0,0,1-28.9,297.1A314.3,314.3,0,0,1,455.3,622.1a312.9,312.9,0,0,1-297.1-28.9A314.3,314.3,0,0,1,44.6,455.3,312.9,312.9,0,0,1,73.5,158.2,314.3,314.3,0,0,1,211.4,44.6,311.4,311.4,0,0,1,333.3,20m0-20C149.2,0,0,149.2,0,333.3S149.2,666.7,333.3,666.7,666.7,517.4,666.7,333.3,517.4,0,333.3,0Z" fill="#32373c"/><path d="M55.6,333.3c0,109.9,63.9,205,156.6,250L79.6,220.3A276.7,276.7,0,0,0,55.6,333.3Zm465.3-14c0-34.3-12.3-58.1-22.9-76.6-14.1-22.9-27.3-42.3-27.3-65.1,0-25.5,19.4-49.3,46.6-49.3l3.6.2A276.7,276.7,0,0,0,333.3,55.6c-97,0-182.4,49.8-232.1,125.2l17.9.3c29,0,74-3.5,74-3.5,15-.9,16.7,21.1,1.8,22.9,0,0-15.1,1.8-31.8,2.6L264.3,504l60.8-182.3L281.8,203.1c-15-.9-29.1-2.6-29.1-2.6-15-.9-13.2-23.8,1.8-22.9,0,0,45.9,3.5,73.2,3.5,29,0,74-3.5,74-3.5,15-.9,16.7,21.1,1.8,22.9,0,0-15.1,1.8-31.8,2.6L472,501.7l28.7-90.8C513.4,371.2,520.9,343.1,520.9,319.3ZM338.2,357.6,254.9,599.8a277.9,277.9,0,0,0,170.7-4.4,25.3,25.3,0,0,1-2-3.8ZM577.1,200.1a213.4,213.4,0,0,1,1.9,28.6c0,28.2-5.3,59.9-21.1,99.5L473,573.4c82.6-48.1,138.1-137.6,138.1-240.1A276.5,276.5,0,0,0,577.1,200.1Z" fill="#32373c"/></svg>